<?xml version="1.0" standalone="no"?>
<!DOCTYPE svg PUBLIC "-//W3C//DTD SVG 20010904//EN"
 "http://www.w3.org/TR/2001/REC-SVG-20010904/DTD/svg10.dtd">
<svg version="1.0" xmlns="http://www.w3.org/2000/svg"
 width="500.000000pt" height="500.000000pt" viewBox="0 0 500.000000 500.000000"
 preserveAspectRatio="xMidYMid meet">

<g transform="translate(0.000000,500.000000) scale(0.100000,-0.100000)"
fill="#000000" stroke="none">
<path d="M2800 4620 c0 -5 10 -10 23 -10 18 0 19 2 7 10 -19 13 -30 13 -30 0z"/>
<path d="M2850 4613 c0 -5 5 -14 12 -21 9 -9 9 -12 -2 -13 -8 -1 -19 -1 -23 0
-5 1 -6 -3 -2 -9 3 -5 13 -10 22 -10 9 0 30 -4 47 -9 17 -5 56 -15 86 -22 30
-6 60 -15 65 -19 6 -5 28 -11 50 -15 22 -4 50 -13 62 -21 12 -8 28 -14 35 -14
12 0 101 -40 203 -93 33 -17 70 -35 82 -41 13 -6 23 -14 23 -18 0 -5 5 -8 10
-8 6 0 38 -20 73 -44 34 -24 79 -55 101 -69 39 -27 215 -185 247 -222 94 -110
142 -170 181 -225 58 -83 138 -215 138 -229 0 -6 4 -11 9 -11 5 0 13 -10 16
-22 4 -13 22 -57 40 -98 43 -99 89 -235 116 -340 68 -272 74 -658 12 -905 -8
-33 -18 -78 -23 -100 -18 -92 -113 -340 -168 -436 -54 -96 -67 -117 -91 -154
-22 -34 -45 -67 -79 -110 -4 -5 -20 -28 -35 -50 -47 -70 -258 -273 -372 -359
-109 -83 -270 -182 -312 -192 -13 -4 -23 -10 -23 -15 0 -5 -6 -9 -14 -9 -7 0
-33 -11 -57 -24 -24 -13 -64 -30 -89 -37 -25 -7 -49 -16 -54 -21 -6 -4 -19 -8
-31 -8 -12 0 -25 -4 -31 -8 -13 -11 -71 -29 -124 -38 -55 -10 -51 -9 -75 -17
-40 -13 -82 -19 -160 -25 -81 -5 -76 -19 7 -21 44 -1 62 -20 21 -23 -15 0 -34
-1 -40 -1 -7 1 -10 -3 -7 -8 7 -11 84 -2 100 12 6 5 13 7 16 4 9 -9 160 16
221 36 31 10 66 19 76 19 11 0 23 4 26 10 3 5 17 10 30 10 13 0 27 5 30 10 4
6 12 9 18 8 11 -2 159 64 212 94 11 7 38 21 60 32 22 12 54 30 70 42 17 11 37
23 45 26 43 15 244 177 354 284 54 53 156 165 156 171 0 4 10 20 23 35 76 91
156 219 218 348 75 156 86 183 149 385 15 48 42 174 53 245 15 107 20 476 7
555 -40 231 -88 416 -141 533 -10 23 -19 49 -19 57 0 8 -4 15 -10 15 -5 0 -10
6 -10 14 0 14 -70 157 -81 166 -3 3 -14 21 -24 40 -10 19 -41 68 -69 108 -28
41 -58 84 -66 96 -43 65 -226 257 -294 310 -17 13 -45 37 -62 52 -17 16 -37
34 -46 39 -83 55 -104 69 -108 75 -3 3 -12 10 -20 14 -24 11 -57 31 -71 43
-23 18 -188 103 -201 103 -7 0 -34 11 -60 25 -26 14 -55 25 -66 25 -10 0 -22
4 -27 8 -6 5 -37 17 -70 26 -33 9 -73 23 -90 31 -16 8 -55 17 -85 21 -50 6
-53 5 -41 -10 7 -9 19 -16 27 -16 7 0 16 -4 19 -10 15 -24 -40 -7 -66 21 -16
17 -29 27 -29 22z m205 -76 c7 -7 4 -8 -8 -3 -10 3 -28 6 -38 6 -12 0 -17 5
-14 10 7 12 44 4 60 -13z m-165 -4011 c0 -9 -30 -14 -35 -6 -4 6 3 10 14 10
12 0 21 -2 21 -4z"/>
<path d="M2773 3613 c4 -6 26 -13 49 -17 51 -8 142 -38 146 -48 2 -5 10 -8 17
-8 7 0 15 -7 19 -15 3 -8 13 -15 21 -15 10 0 13 5 9 11 -4 7 -1 10 7 7 8 -3
14 -11 14 -19 0 -9 9 -13 23 -11 12 2 22 -1 22 -6 0 -8 13 -15 50 -26 13 -4
30 -18 30 -25 0 -11 -36 -7 -52 6 -7 6 -47 9 -91 8 -84 -3 -120 -15 -46 -15
27 0 39 -4 31 -8 -8 -6 8 -13 45 -22 32 -8 82 -27 112 -42 29 -15 59 -28 66
-28 41 0 235 -124 295 -189 68 -74 120 -186 120 -262 0 -54 28 -84 79 -84 61
0 73 19 72 105 -1 67 -38 204 -59 220 -4 3 -27 32 -52 64 -49 64 -166 170
-209 189 -14 6 -28 15 -31 19 -10 14 -226 116 -260 123 -19 4 -39 11 -45 14
-5 4 -37 14 -70 21 -33 7 -65 17 -72 22 -6 5 -53 13 -105 18 -51 5 -104 12
-117 16 -16 5 -22 4 -18 -3z"/>
<path d="M2908 3453 c6 -2 18 -2 25 0 6 3 1 5 -13 5 -14 0 -19 -2 -12 -5z"/>
<path d="M2670 2606 c0 -9 50 -12 62 -5 8 6 -1 9 -24 9 -21 0 -38 -2 -38 -4z"/>
<path d="M2816 2573 c20 -15 54 -17 54 -4 0 5 -16 11 -36 13 -32 4 -34 3 -18
-9z"/>
<path d="M2880 2568 c0 -4 4 -8 10 -8 5 0 33 -14 62 -31 28 -17 46 -24 40 -16
-10 12 -8 15 13 15 14 0 25 -6 24 -12 -4 -30 3 -44 27 -54 22 -11 24 -14 10
-27 -19 -19 -26 -19 -26 0 0 20 -15 19 -36 -2 -17 -17 -16 -18 12 -21 67 -6
94 -13 88 -24 -5 -7 0 -9 15 -5 21 5 180 -27 213 -44 10 -5 23 -9 30 -9 7 0
55 -20 105 -45 73 -35 100 -54 131 -93 50 -63 70 -144 52 -208 -16 -56 -102
-138 -186 -178 -32 -16 -67 -32 -76 -37 -10 -5 -26 -9 -36 -9 -10 0 -22 -3
-25 -7 -4 -3 -49 -17 -99 -30 -84 -22 -139 -33 -251 -50 -20 -3 -40 -9 -43
-14 -3 -5 -51 -9 -106 -9 -56 0 -98 -3 -95 -7 4 -3 79 -5 167 -4 129 2 160 0
160 -11 0 -20 -60 -85 -66 -72 -4 9 -13 8 -35 -3 -16 -8 -27 -18 -24 -23 6 -9
15 -8 150 10 44 6 93 12 108 14 15 2 33 8 39 14 7 7 23 12 36 12 30 0 134 29
146 41 6 5 17 9 25 9 9 0 43 13 76 30 155 77 212 126 261 225 34 70 37 81 36
158 -2 92 -20 152 -69 221 -48 68 -137 134 -235 175 -16 6 -38 15 -50 20 -38
16 -135 41 -157 41 -12 0 -21 5 -21 10 0 6 -13 10 -29 10 -16 0 -60 6 -98 14
-145 30 -273 46 -273 34z m180 -78 c0 -5 -4 -10 -10 -10 -5 0 -10 5 -10 10 0
6 5 10 10 10 6 0 10 -4 10 -10z"/>
</g>
</svg>
